<svg width="274" height="200" viewBox="0 0 274 200" fill="none" xmlns="http://www.w3.org/2000/svg">
<path d="M124.215 42.285C124.215 42.285 124.189 42.3104 124.176 42.3104C113.323 46.4233 98.3815 55.2205 96.0584 72.7007C96.7439 63.8146 100.946 54.6874 110.276 48.2767C110.72 47.9847 111.025 47.7943 111.266 47.6293L111.888 47.2358V47.2104C113.564 46.1948 115.379 45.2682 117.372 44.4049V44.4303C119.556 43.5671 119.822 43.4529 119.848 43.4402H119.873C120.051 43.3767 120.203 43.3132 120.381 43.2624C120.559 43.1736 120.736 43.1355 120.914 43.0593C121.93 42.7039 123.034 42.4627 124.189 42.285H124.227H124.215Z" fill="#F5D396"/>
<path d="M163.783 72.7388C163.821 72.9419 163.859 73.1323 163.884 73.3228C163.859 73.145 163.821 72.9927 163.783 72.8277C163.44 70.8854 163.009 69.0321 162.475 67.2168C163.009 69.0067 163.44 70.822 163.783 72.7261V72.7388Z" fill="#8A6730"/>
<path d="M182.964 130.168C182.926 139.626 180.438 147.725 176.884 154.491C173.672 160.597 169.584 165.662 165.624 169.737C160.927 174.573 156.42 178.013 153.754 180.159C153.78 180.133 153.818 180.095 153.843 180.07C155.912 177.924 174.218 157.639 169.483 138.851C169.483 138.826 169.47 138.788 169.457 138.762C169.343 138.229 169.178 137.709 169.013 137.175C166.957 130.93 165.865 122.552 165.662 112.041C165.649 111.33 165.636 110.632 165.636 109.908C165.636 109.54 165.611 109.184 165.611 108.854C165.611 108.385 165.611 107.966 165.586 107.547C165.573 105.909 165.547 104.589 165.522 103.548C165.497 102.812 165.497 102.228 165.484 101.733V101.606C165.484 101.454 165.484 101.288 165.459 101.136C165.446 100.133 165.42 99.7271 165.395 99.6001C165.395 99.6001 165.459 99.562 165.573 99.5113C166.728 98.7496 173.164 94.9032 180.705 94.4843C174.142 101.504 176.109 124.164 181.225 129.191C181.263 129.229 181.314 129.305 181.365 129.318C181.86 129.813 182.431 130.092 182.99 130.168H182.964Z" fill="#8A6730"/>
<path d="M153.818 180.07C153.818 180.07 153.754 180.133 153.729 180.159C153.716 180.184 153.691 180.197 153.666 180.222C153.653 180.248 153.627 180.26 153.627 180.26L158.692 122.717L159.441 114.288C161.396 112.751 163.427 111.292 165.598 109.908C165.598 110.632 165.611 111.33 165.624 112.041C165.827 122.564 166.918 130.93 168.975 137.175C169.115 137.721 169.28 138.242 169.419 138.762C169.432 138.788 169.445 138.826 169.445 138.851C174.18 157.639 155.874 177.924 153.805 180.07H153.818Z" fill="#C09D50"/>
<path d="M159.467 114.3L158.718 122.717L153.653 180.26V119.53C155.468 117.677 157.41 115.925 159.467 114.288V114.3Z" fill="#F5D396"/>
<path d="M136.515 133.291V144.652C135.589 144.627 134.662 144.208 133.989 143.408L129.635 138.153C128.746 137.074 130.016 135.589 131.209 136.3C133.558 137.696 136.515 136.008 136.515 133.291Z" fill="#F5D396"/>
<path d="M163.884 73.3227C163.859 73.145 163.821 72.9927 163.783 72.8277C165.192 90.8283 151.736 101.428 145.351 106.252C144.348 107.001 143.523 107.61 142.951 108.08C142.951 108.08 142.774 108.22 142.507 108.524C142.367 108.664 142.202 108.842 142.05 109.057C141.796 109.387 141.517 109.794 141.25 110.276C141.162 110.428 141.073 110.606 140.996 110.784C140.717 111.355 140.463 112.015 140.286 112.79C140.222 113.018 140.184 113.259 140.146 113.526C140.07 113.97 140.032 114.453 140.019 114.96C139.372 111.228 139.067 106.252 139.067 98.3815V86.2837C139.727 85.4332 140.539 84.7096 141.441 84.1003C142.304 83.8083 143.18 83.4148 144.043 82.907C144.919 82.4119 145.808 81.8153 146.671 81.1425C147.115 80.8124 147.534 80.457 147.953 80.0635C148.372 79.6699 148.791 79.2891 149.184 78.8702C153.259 74.643 156.407 68.5243 156.407 61.847C156.407 61.4408 156.395 61.0473 156.369 60.6284C156.357 60.2221 156.331 59.8032 156.268 59.397C156.23 58.9781 156.166 58.5592 156.077 58.1276C155.836 56.8962 155.506 55.6141 155.024 54.3573C154.871 53.9257 154.694 53.5068 154.491 53.0879C154.3 52.6817 154.135 52.2628 153.919 51.8819C153.894 51.8565 153.894 51.8439 153.881 51.8058C153.653 51.3869 153.412 50.9679 153.158 50.5363C152.904 50.1174 152.637 49.6985 152.358 49.2796C152.155 48.9876 151.926 48.7083 151.711 48.391C151.584 48.2006 151.419 48.0228 151.266 47.8197C151.342 47.8959 151.406 47.9594 151.457 48.0228C152.663 49.3558 153.767 50.6887 154.783 52.0216C155.125 52.4659 155.443 52.9102 155.76 53.3418C156.077 53.7861 156.395 54.2304 156.687 54.6747C156.991 55.119 157.271 55.576 157.55 56.033C157.829 56.4773 158.096 56.9216 158.337 57.3913C158.591 57.8356 158.857 58.2926 159.086 58.7496C159.327 59.2066 159.556 59.6763 159.771 60.1333C159.987 60.5903 160.203 61.06 160.406 61.517C160.8 62.3929 161.155 63.2688 161.485 64.1701C161.511 64.2336 161.523 64.2843 161.549 64.3478C161.726 64.8175 161.879 65.3126 162.044 65.7823C162.196 66.2774 162.361 66.7598 162.501 67.2548C163.034 69.0447 163.466 70.86 163.808 72.7642C163.846 72.9673 163.884 73.1577 163.91 73.3481L163.884 73.3227Z" fill="#C09D50"/>
<path d="M147.725 11.1457C146.442 11.8312 144.119 19.232 141.784 28.118C140.616 32.5611 139.422 37.385 138.356 41.9168C137.277 46.4234 136.3 50.6506 135.576 53.9257C135.424 54.5858 134.891 54.9032 134.357 54.9032V19.3716L147.737 11.1457H147.725Z" fill="#8A6730"/>
<path d="M128.023 37.5119C127.705 39.086 127.083 40.5205 126.373 41.8915C127.414 38.9591 127.604 35.8616 126.588 33.0689C125.763 30.5554 124.405 28.0292 123.656 25.1095C123.631 25.1349 123.631 25.1857 123.631 25.1983C123.288 26.9375 123.097 28.8924 122.64 31.0378C122.348 32.2437 121.955 33.5512 121.193 34.8715C120.876 35.3285 120.52 35.7982 120.089 36.2044C119.975 36.3567 119.81 36.4963 119.645 36.6233C119.518 36.7629 119.34 36.8645 119.188 36.9787C119.035 37.093 118.857 37.1818 118.692 37.2961C118.337 37.5119 118.197 37.55 117.956 37.6896C114.491 39.543 111.304 42.5008 111.749 46.4107C111.761 46.5503 111.761 46.7026 111.812 46.8296C111.838 46.9565 111.85 47.0835 111.901 47.2231V47.2485L111.279 47.6547C110.784 45.3697 109.844 40.9013 116.306 36.5344C116.953 36.0901 117.499 35.6331 117.918 35.1127C118.159 34.8588 118.362 34.5668 118.566 34.2748C120.482 31.5455 120.292 28.0927 120.508 25.1476C121.092 16.9851 126.512 14.3193 127.604 19.0162C127.68 19.3589 127.794 19.9048 127.909 20.6157C127.769 20.0825 127.54 19.6382 127.198 19.8159C126.271 20.311 126.246 22.0628 126.525 23.8147C126.944 26.5947 127.642 29.5398 128.137 32.7261C128.378 34.3256 128.378 35.9759 128.048 37.5373L128.023 37.5119Z" fill="#8A6730"/>
<path d="M124.303 35.5189C124.126 36.471 123.643 37.3088 123.148 38.1085C122.133 39.6573 120.977 41.0536 120.228 42.5262C120.14 42.7039 120.051 42.8816 120.013 43.0594C119.949 43.1863 119.898 43.3259 119.86 43.4402H119.835C119.835 43.4402 119.543 43.5671 117.36 44.4304V44.405C117.36 44.405 117.385 44.3669 117.385 44.3415C117.69 43.3513 118.185 42.4373 118.705 41.6503C119.784 40.0381 121.142 38.794 122.26 37.4484C123.415 36.1917 124.354 34.5795 123.783 32.8277C123.758 32.7642 123.808 32.7007 123.846 32.6754C123.91 32.65 123.973 32.7007 123.999 32.7388C124.329 33.5767 124.57 34.5795 124.291 35.5189H124.303Z" fill="#8A6730"/>
<path d="M133.101 103.142C133.101 103.383 133.075 103.586 133.012 103.738C132.986 103.827 132.948 103.891 132.897 103.954C132.809 104.132 132.682 104.221 132.517 104.284C132.479 104.31 132.428 104.322 132.39 104.322C131.945 104.411 131.438 104.17 131.323 103.789C128.188 93.9765 120.889 94.0019 113.285 91.3868C111.279 90.7013 109.057 89.5462 106.988 88.264C106.277 87.8451 105.592 87.3754 104.932 86.9438C102.304 85.1285 100.044 83.1863 98.9019 81.7645C98.9019 84.4176 99.0162 87.1596 99.2066 89.9397C98.6988 88.8734 98.2291 87.7689 97.8356 86.6011C96.3758 82.3992 95.6903 77.6261 96.0457 72.7642V72.6753C98.3688 55.1952 113.31 46.3853 124.164 42.285C123.275 42.7293 122.399 43.1736 121.574 43.6306C120.533 44.1891 119.543 44.7604 118.591 45.357C116.268 46.7661 114.186 48.2513 112.358 49.8C111.888 50.1936 111.457 50.5744 111.038 50.9679C110.619 51.3615 110.2 51.7423 109.794 52.1358C108.994 52.9356 108.245 53.748 107.534 54.5731C105.808 56.6296 104.399 58.7496 103.243 60.9838C102.647 62.2405 102.202 63.4338 101.847 64.589C101.669 65.1856 101.517 65.7823 101.428 66.3408C101.314 66.7851 101.25 67.204 101.212 67.623C101.174 67.8388 101.149 68.0419 101.149 68.245C101.123 68.4481 101.111 68.6258 101.111 68.8035C101.085 69.4636 101.085 70.1111 101.136 70.7331C101.174 71.0885 101.225 71.444 101.263 71.774C101.263 71.8375 101.263 71.901 101.288 71.9517C102.088 78.8702 105.935 84.9762 118.159 88.6195C132.199 92.8213 133.063 97.2643 133.101 103.142Z" fill="#C09D50"/>
<path d="M130.409 122.298C130.447 122.387 130.447 122.475 130.409 122.552C130.321 122.704 130.067 122.793 129.876 122.64C129.864 122.64 129.864 122.628 129.838 122.602C129.838 122.59 129.825 122.59 129.825 122.564C129.787 122.437 129.724 122.31 129.686 122.196C129.546 121.828 129.407 121.447 129.267 121.092C129.127 120.724 128.988 120.343 128.848 119.975C126.804 114.453 124.811 110.086 119.175 109.527C115.417 109.159 110.771 107.89 106.176 102.913C105.884 102.558 105.566 102.19 105.275 101.822C107.242 103.053 109.794 105.122 113.272 106.214C113.374 106.252 113.462 106.303 113.564 106.303C114.757 106.671 116.065 106.925 117.512 106.976C119.124 107.052 120.47 107.179 121.625 107.407C120.647 106.646 118.997 105.681 116.484 104.97C113.462 104.107 110.098 103.091 107.318 100.895C105.922 99.854 104.741 98.483 103.954 96.9851C103.205 95.4364 102.723 93.8242 102.545 92.1612C103.738 95.2587 105.655 97.8991 108.283 99.4859C110.898 101.136 113.957 102.101 117.22 102.875C121.79 103.954 123.237 104.805 125.497 106.747C127.731 108.677 128.188 110.822 128.404 112.485C128.607 114.11 128.721 115.646 128.848 117.245C128.873 117.372 128.886 117.537 128.886 117.664C128.975 118.197 129.089 118.743 129.254 119.353C129.394 119.81 129.546 120.317 129.775 120.851C129.952 121.32 130.168 121.803 130.409 122.323V122.298Z" fill="#8A6730"/>
<path d="M129.749 122.488C128.264 120.762 125.522 118.4 121.638 118.4C111.469 118.4 114.389 114.529 104.818 102.482C105.414 103.078 110.276 107.902 111.799 111.063C113.412 114.427 115.443 115.989 117.613 116.661C119.784 117.321 123.732 116.661 125.903 118.413C127.807 119.911 129.394 122.018 129.749 122.501V122.488Z" fill="#F5D396"/>
<path d="M129.813 122.564C129.813 122.564 129.775 122.501 129.749 122.488C129.394 121.993 127.807 119.898 125.89 118.4C123.732 116.649 119.772 117.309 117.601 116.649C115.443 115.989 113.399 114.414 111.787 111.063C110.263 107.902 105.401 103.078 104.805 102.469C104.767 102.431 104.729 102.406 104.729 102.406C104.652 102.317 104.64 102.228 104.64 102.126C104.64 102.025 104.678 101.936 104.754 101.834H104.767C104.881 101.695 105.084 101.657 105.262 101.771C105.566 102.139 105.884 102.507 106.163 102.85C110.758 107.839 115.405 109.108 119.162 109.489C124.786 110.048 126.791 114.414 128.835 119.937C128.975 120.305 129.115 120.685 129.254 121.054C129.394 121.409 129.533 121.79 129.673 122.158C129.711 122.272 129.762 122.399 129.8 122.526L129.813 122.564Z" fill="#C09D50"/>
<path d="M113.221 179.334C97.5056 163.059 89.927 138.242 93.4307 129.952C98.0768 119.01 98.4323 116.534 97.7595 104.691C97.7595 104.691 100.768 114.567 95.9442 127.769C91.1457 140.971 103.573 167.54 113.209 179.346L113.221 179.334Z" fill="#F5D396"/>
<path d="M116.509 135.855C116.357 131.26 112.967 127.096 109.591 123.719C105.985 120.114 103.561 113.399 103.561 113.399C103.408 113.272 103.408 112.739 103.523 112.891C105.109 115.328 108.029 120.368 112.371 123.719C112.663 123.935 112.967 124.164 113.234 124.405C115.887 127.058 116.864 128.696 116.522 135.855H116.509Z" fill="#F5D396"/>
<path d="M120.736 176.046C119.746 179.384 115.557 181.022 113.399 179.448C114.503 179.892 115.519 175.474 115.341 170.054C115.341 163.25 115.455 146.112 116.382 138.09C116.407 137.848 116.446 137.607 116.471 137.366C116.534 136.858 116.56 136.376 116.509 135.868C116.839 128.708 115.874 127.071 113.221 124.418C116.649 127.198 119.099 130.143 119.746 132.859C120.546 135.817 120.609 138.889 120.317 141.796C119.365 151.66 122.31 170.828 120.736 176.058V176.046Z" fill="#8A6730"/>
<path d="M113.399 179.448C113.399 179.448 113.285 179.41 113.221 179.334C103.586 167.528 91.1584 140.958 95.9568 127.756C100.781 114.554 97.7721 104.678 97.7721 104.678C97.7468 104.284 98.3688 104.259 98.4069 104.653C101.631 113.983 97.4802 126.093 96.8582 131.818C95.4237 145.503 108.093 164.291 113.462 170.727C114.11 171.501 115.341 171.031 115.341 170.041C115.519 175.462 114.503 179.879 113.399 179.435V179.448Z" fill="#C09D50"/>
<path d="M134.357 19.3716C134.357 19.3716 134.345 19.3716 134.345 19.3843V19.3589C134.345 19.3589 134.345 19.3716 134.357 19.3716Z" fill="#F5D396"/>
<path d="M134.357 19.3716V19.232C134.357 19.232 134.332 19.2955 134.332 19.3208C134.091 18.8004 131.73 11.6534 125.573 12.7832C121.003 13.6211 118.566 21.225 118.604 25.1095C118.642 29.2732 118.35 31.2409 117.03 32.9927C117.017 33.0562 116.903 33.145 116.776 33.3101C116.547 33.5259 116.23 33.8305 116.001 34.0463C117.385 32.6119 117.423 31.1647 117.436 30.2888C117.512 28.41 117.296 26.252 117.334 23.8274C117.398 21.4662 117.702 18.5719 119.48 15.8172C120.355 14.4589 122.133 11.5138 127.49 9.91431C133.735 8.07363 141.86 9.13995 147.725 11.1457L134.357 19.3589V19.3716Z" fill="#F5D396"/>
<path d="M134.345 19.3589V54.9032C133.773 54.9032 133.228 54.5478 133.113 53.8369L131.247 41.8788C131.247 41.8788 128.95 26.3916 127.909 20.6665C127.909 20.6538 127.909 20.6284 127.896 20.603C127.782 19.8921 127.667 19.3462 127.591 19.0035C126.5 14.2939 121.092 16.9724 120.495 25.1349C120.279 28.0673 120.47 31.5202 118.553 34.2621C118.35 34.5541 118.147 34.8334 117.905 35.1C117.487 35.6204 116.941 36.0774 116.293 36.5217C109.832 40.9013 110.784 45.357 111.266 47.642C111.025 47.7817 110.72 47.9848 110.276 48.2767C110.073 47.7817 109.87 47.312 109.743 46.7788C109.07 44.4303 109.591 41.6884 110.847 39.5684C112.117 37.423 113.881 35.7474 115.709 34.3256C115.747 34.2875 115.862 34.186 115.989 34.0463H116.001C116.23 33.8178 116.547 33.5132 116.776 33.2974C116.903 33.145 117.017 33.0435 117.03 32.98C118.337 31.2282 118.642 29.2479 118.604 25.0968C118.566 21.2123 120.99 13.5957 125.573 12.7706C131.73 11.6281 134.091 18.7877 134.332 19.3082C134.345 19.3335 134.345 19.3462 134.345 19.3462V19.3589Z" fill="#C09D50"/>
<path d="M133.113 89.1399V103.155C133.075 97.2771 132.212 92.834 118.172 88.6322C105.947 84.9889 102.101 78.8829 101.301 71.9644C104.043 87.4008 133.113 89.1399 133.113 89.1399Z" fill="#8A6730"/>
<path d="M156.407 61.8343C156.407 68.5116 153.247 74.6303 149.184 78.8575C148.791 79.2764 148.372 79.6699 147.94 80.0508C147.521 80.4316 147.102 80.7997 146.658 81.1298C145.795 81.8153 144.906 82.4119 144.03 82.8943C143.167 83.4021 142.279 83.7956 141.415 84.0876C155.874 74.4018 157.575 58.026 144.03 45.6236L145.198 41.8914C145.617 42.2215 146.011 42.5262 146.392 42.8689C146.722 43.1355 147.052 43.4275 147.369 43.7067C147.661 43.9733 147.94 44.2145 148.207 44.4811C148.588 44.8365 148.93 45.192 149.273 45.5474C149.921 46.2075 150.492 46.8676 151.038 47.5405C151.101 47.6547 151.19 47.7436 151.254 47.8324C151.317 47.8959 151.38 47.9594 151.431 48.0355C151.52 48.1625 151.609 48.3021 151.698 48.4164C151.914 48.721 152.142 49.013 152.333 49.305C152.625 49.7239 152.891 50.1428 153.145 50.5617C153.386 50.9806 153.627 51.3995 153.856 51.8185C153.881 51.8438 153.881 51.8565 153.894 51.8819C154.097 52.3008 154.288 52.6944 154.465 53.1006C154.668 53.5195 154.846 53.9384 154.998 54.3573C155.481 55.6141 155.811 56.8962 156.065 58.1403C156.128 58.5592 156.192 58.9781 156.242 59.397C156.306 59.8159 156.331 60.2348 156.357 60.6411C156.382 61.06 156.395 61.4535 156.395 61.8597L156.407 61.8343Z" fill="#F5D396"/>
<path d="M148.004 135.843L139.41 143.345C138.673 144.284 137.594 144.729 136.503 144.652V93.6338C136.503 90.9553 137.391 88.3402 139.029 86.3091V98.3942C139.029 106.265 139.334 111.241 139.981 114.973C140.4 117.283 140.933 119.137 141.606 120.889L142.012 121.828L146.468 132.428L147.991 135.855L148.004 135.843Z" fill="#8A6730"/>
<path d="M139.054 86.2837V95.6903C139.042 96.5916 139.042 97.4421 139.042 98.2799V86.2964H139.054V86.2837Z" fill="#8A6730"/>
<path d="M180.666 94.497C173.126 94.9159 166.677 98.7496 165.535 99.524C165.42 99.5621 165.357 99.6128 165.357 99.6128C158.642 102.748 148.385 110.467 143.193 114.491C141.428 115.824 140.717 118.134 141.377 120.229C141.415 120.432 141.492 120.597 141.555 120.787C141.492 120.635 141.428 120.457 141.365 120.292C141.25 120 141.123 119.721 141.009 119.429C140.641 118.451 140.324 117.525 140.07 116.534C139.994 115.989 139.981 115.455 139.981 114.96C139.994 114.44 140.044 113.97 140.108 113.526C140.146 113.272 140.197 113.031 140.248 112.79C140.425 112.028 140.679 111.368 140.958 110.784C141.047 110.606 141.136 110.441 141.212 110.276C141.492 109.781 141.758 109.388 142.012 109.057C142.164 108.842 142.329 108.664 142.469 108.524C142.748 108.22 142.913 108.08 142.913 108.08C143.485 107.61 144.31 107.001 145.313 106.252C151.698 101.428 165.154 90.8283 163.745 72.8277V72.7261C163.402 70.822 162.97 68.994 162.437 67.2168C162.31 66.7217 162.145 66.2393 161.98 65.7442C161.841 65.2491 161.676 64.7794 161.485 64.3098C161.473 64.2463 161.46 64.1955 161.422 64.132C161.104 63.2434 160.749 62.3675 160.343 61.4789C160.152 61.0219 159.937 60.5522 159.708 60.0952C159.492 59.6382 159.264 59.1685 159.023 58.7115C158.794 58.2545 158.553 57.8102 158.274 57.3532C158.032 56.9089 157.766 56.4519 157.487 55.9949C157.207 55.5506 156.928 55.0936 156.623 54.6366C156.331 54.1923 156.039 53.748 155.697 53.3037C155.392 52.8594 155.062 52.4278 154.719 51.9835C153.716 50.6506 152.599 49.3177 151.393 47.9848C151.355 47.9213 151.279 47.8578 151.203 47.7817C151.139 47.6928 151.063 47.6039 150.987 47.4897C150.441 46.8296 149.87 46.1695 149.222 45.5094C148.892 45.1666 148.537 44.7985 148.156 44.443C147.902 44.1892 147.61 43.9353 147.318 43.6814C147.001 43.3894 146.671 43.1101 146.341 42.8309C145.973 42.5008 145.579 42.1961 145.148 41.8661C167.236 45.2428 182.926 65.3253 180.628 94.4589L180.666 94.497Z" fill="#8A6730"/>
<path d="M142.037 109.07C142.215 108.854 142.367 108.664 142.494 108.537C142.355 108.677 142.19 108.854 142.037 109.07Z" fill="#8A6730"/>
<path d="M163.783 72.7388C163.821 72.9419 163.859 73.1324 163.884 73.3228C163.859 73.145 163.821 72.9927 163.783 72.8277V72.7261V72.7388Z" fill="#8A6730"/>
<path d="M35.1761 150.733L34.7191 150.885C32.3453 147.928 28.702 146.645 23.6369 146.645C17.7975 146.645 14.9921 148.473 14.9921 150.885C14.9921 157.804 36.8137 150.924 36.8137 163.821C36.8137 172.593 26.7471 173.418 21.6312 173.418C15.4744 173.418 12.5674 172.415 9.4573 171.006L8.16248 165.103L8.61947 164.951C10.4729 168.48 15.6522 170.422 21.4916 170.422C27.331 170.422 31.1139 169.064 31.1139 165.484C31.1139 158.223 9.29228 165.255 9.29228 152.701C9.29228 144.119 19.2955 143.688 22.5833 143.688C27.8007 143.688 31.5709 144.538 34.2621 145.82L35.1761 150.708V150.733Z" fill="#3D3D3B"/>
<path d="M55.1698 172.402C53.875 172.402 52.4405 172.517 51.1457 172.593C51.3869 169.838 51.7423 166.03 51.7423 158.413C51.7423 149.019 51.425 147.306 51.1457 144.589C53.1006 144.665 55.411 144.779 57.3659 144.779C59.0416 144.779 65.0587 144.589 66.5948 144.589C77.7912 144.589 81.8788 147.039 81.8788 153.526C81.8788 160.013 77.7912 162.463 66.5948 162.463H58.5846C58.6862 167.477 58.94 170.46 59.1432 172.606C57.8483 172.529 56.4519 172.415 55.1571 172.415L55.1698 172.402ZM58.775 147.89C58.6735 149.908 58.5973 152.548 58.5973 159.111H66.6074C72.2691 159.111 74.3002 157.169 74.3002 153.513C74.3002 149.857 72.2691 147.877 66.6074 147.877H58.775V147.89Z" fill="#3D3D3B"/>
<path d="M117.715 146.734C122.679 156.293 126.004 162.932 132.022 172.606C130.067 172.491 128.835 172.415 127.655 172.415C126.474 172.415 125.243 172.491 123.288 172.606C122.272 170.194 121.193 167.794 120.076 165.382H102.558C101.225 167.947 99.9683 170.435 98.9908 172.606C98.4322 172.491 97.3532 172.415 96.2615 172.415C95.1698 172.415 94.1288 172.491 93.5703 172.606C98.61 165.459 105.427 154.199 110.048 146.354C109.387 145.541 108.512 145.338 106.582 145.109V144.602C107.877 144.602 109.768 144.792 111.025 144.792C112.358 144.792 113.856 144.602 114.668 144.602C116.344 144.602 117.042 144.83 117.74 146.734H117.715ZM111.66 149.222C109.489 152.955 106.836 157.537 104.348 162.044H118.439C116.369 157.893 114.135 153.653 111.647 149.222H111.66Z" fill="#3D3D3B"/>
<path d="M149.286 172.402C147.991 172.402 146.595 172.517 145.3 172.593C145.541 169.838 145.858 166.03 145.858 158.413C145.858 149.019 145.579 147.306 145.3 144.589C147.255 144.665 149.527 144.779 151.495 144.779C153.208 144.779 158.667 144.589 160.584 144.589C171.501 144.589 175.449 146.684 175.449 153.209C175.449 157.867 173.418 160.279 168.315 161.282C169.153 162.056 169.749 162.945 170.308 163.884C172.479 167.579 173.558 171.73 177.023 171.768C178.242 171.768 179.334 171.539 180.451 170.803L180.73 171.349C179.232 172.402 177.201 173.253 173.875 173.253C161.282 173.253 165.446 161.841 158.375 161.841H152.739C152.802 167.198 153.094 170.232 153.297 172.593C151.964 172.517 150.568 172.402 149.273 172.402H149.286ZM152.929 147.89C152.828 149.794 152.726 152.282 152.726 158.527H160.597C167.071 158.527 168.467 156.357 168.467 153.209C168.467 150.06 167.071 147.89 160.597 147.89H152.942H152.929Z" fill="#3D3D3B"/>
<path d="M207.02 172.402C205.725 172.402 204.329 172.517 203.034 172.593C203.237 169.838 203.593 166.03 203.593 158.413C203.593 152.663 203.453 149.794 203.313 147.813H195.1C193.602 147.813 192.548 148.435 191.457 150.149L191 149.997L191.838 144.487H192.358C193.158 144.564 193.97 144.602 195.011 144.602H218.927C220.006 144.602 221.098 144.602 221.657 144.487H222.152L222.99 149.997L222.571 150.149C221.492 148.435 220.4 147.813 218.927 147.813H210.676C210.536 149.794 210.46 152.663 210.46 158.413C210.46 166.03 210.778 169.838 210.981 172.593C209.686 172.517 208.289 172.402 206.995 172.402H207.02Z" fill="#3D3D3B"/>
<path d="M253.063 146.734C258.026 156.293 261.352 162.932 267.369 172.606C265.414 172.491 264.183 172.415 263.002 172.415C261.822 172.415 260.59 172.491 258.635 172.606C257.62 170.194 256.541 167.794 255.424 165.382H237.905C236.573 167.947 235.316 170.435 234.338 172.606C233.78 172.491 232.701 172.415 231.609 172.415C230.517 172.415 229.476 172.491 228.918 172.606C233.957 165.459 240.774 154.199 245.395 146.354C244.735 145.541 243.859 145.338 241.93 145.109V144.602C243.224 144.602 245.116 144.792 246.373 144.792C247.705 144.792 249.203 144.602 250.016 144.602C251.692 144.602 252.39 144.83 253.088 146.734H253.063ZM247.007 149.222C244.837 152.955 242.183 157.537 239.695 162.044H253.786C251.717 157.893 249.483 153.653 246.995 149.222H247.007Z" fill="#3D3D3B"/>
<path d="M33.3609 185.071C33.3609 186.836 34.1987 187.94 35.6585 187.94C37.1184 187.94 37.6389 187.483 38.3498 186.442L38.464 186.493L38.1593 188.258C38.134 188.397 38.0959 188.423 37.9308 188.486C37.2453 188.727 36.5725 188.854 35.6585 188.854C33.3355 188.854 31.2155 187.839 31.2155 185.033C31.2155 182.659 32.8404 181.339 35.6078 181.339C36.3948 181.339 37.1819 181.492 37.9055 181.784C38.007 181.822 38.0705 181.898 38.0959 182.037L38.3371 184.056L38.2228 184.107C37.8039 183.129 37.0422 182.304 35.6332 182.304C34.351 182.304 33.3482 183.167 33.3482 185.059L33.3609 185.071Z" fill="#3D3D3B"/>
<path d="M47.1343 181.771L47.3754 183.294L47.2739 183.332C47.0454 182.825 46.8169 182.71 46.3218 182.71H43.8718C43.8591 183.32 43.8337 183.929 43.8337 184.526H45.0651C45.4332 184.526 46.0806 184.475 46.3726 184.373C46.3472 184.653 46.3345 184.856 46.3345 185.084C46.3345 185.325 46.3345 185.49 46.3726 185.795C46.0806 185.681 45.4332 185.643 45.0651 185.643H43.8337C43.8337 186.265 43.8591 186.899 43.8718 187.534H45.9791C46.7153 187.534 47.0581 187.394 47.7309 186.455L47.8451 186.519L47.1596 188.423C47.0835 188.639 47.0581 188.651 46.8677 188.651C44.1257 188.651 43.7322 188.588 43.1736 188.588C42.7166 188.588 42.2088 188.639 41.7518 188.651C41.8153 187.928 41.9042 186.988 41.9042 185.071C41.9042 182.698 41.828 182.317 41.7518 181.58C42.2088 181.606 42.7166 181.644 43.1736 181.644C43.7322 181.644 44.1257 181.58 46.9692 181.58C47.0835 181.58 47.1089 181.631 47.1343 181.771Z" fill="#3D3D3B"/>
<path d="M51.0187 181.403C51.5011 181.809 53.1641 183.193 54.7636 184.195C55.4745 184.652 55.868 184.919 56.2107 185.122C56.2107 184.589 56.2488 184.221 56.2488 183.738C56.2488 183.256 56.2234 182.621 56.1346 181.568C56.2996 181.619 56.5408 181.631 56.7693 181.631C56.9978 181.631 57.2263 181.606 57.404 181.568C57.2644 182.812 57.2136 184.195 57.2136 185.592C57.2136 186.684 57.2517 187.788 57.3278 188.854H57.239C56.782 188.486 55.2587 187.242 54.0019 186.417C53.1006 185.858 52.5167 185.478 52.0597 185.186C52.047 185.516 52.0216 185.897 52.0216 186.29C52.0216 187.001 52.0597 187.788 52.1612 188.626C51.9708 188.575 51.755 188.562 51.5265 188.562C51.298 188.562 51.0822 188.588 50.8918 188.626C50.9933 187.89 51.0314 186.557 51.0314 185.211C51.0314 183.713 50.9806 182.164 50.8918 181.327H51.0187V181.377V181.403Z" fill="#3D3D3B"/>
<path d="M63.9924 188.588C63.6369 188.588 63.2561 188.639 62.9134 188.651C62.9768 187.928 63.0657 186.988 63.0657 185.071C63.0657 183.878 63.053 183.193 63.0149 182.698H61.517C61.1615 182.698 60.933 182.926 60.6411 183.497L60.5268 183.447L60.7553 181.657C60.7553 181.593 60.7807 181.593 60.8188 181.593H67.1406C67.1406 181.593 67.2168 181.593 67.2295 181.657L67.458 183.447L67.3437 183.497C67.0517 182.926 66.8232 182.698 66.4678 182.698H64.9826C64.9572 183.193 64.9445 183.878 64.9445 185.071C64.9445 186.988 65.0333 187.915 65.0968 188.651C64.7414 188.626 64.3605 188.588 64.0178 188.588H63.9924Z" fill="#3D3D3B"/>
<path d="M71.6471 188.588C71.2916 188.588 70.9108 188.639 70.5681 188.651C70.6315 187.928 70.7204 186.988 70.7204 185.071C70.7204 182.698 70.6442 182.317 70.5681 181.58C71.0504 181.606 71.5963 181.644 72.0787 181.644C72.5357 181.644 73.2466 181.58 73.5005 181.58C76.179 181.58 76.9406 182.164 76.9406 183.853C76.9406 184.957 76.5979 185.592 75.6077 185.897C75.722 186.049 75.8108 186.214 75.8997 186.379C76.4075 187.344 76.5852 188.372 77.2707 188.385C77.4865 188.385 77.6769 188.347 77.88 188.22L77.9435 188.372C77.6261 188.639 77.1564 188.88 76.3059 188.88C73.6147 188.88 74.5287 186.125 73.0308 186.125H72.5992C72.6245 187.344 72.688 188.08 72.7388 188.664C72.3833 188.639 72.0025 188.6 71.6598 188.6L71.6471 188.588ZM72.6245 182.71C72.5992 183.155 72.5865 183.777 72.5865 184.995H73.5005C74.7191 184.995 74.8841 184.487 74.8841 183.853C74.8841 183.218 74.7191 182.71 73.5005 182.71H72.6372H72.6245Z" fill="#3D3D3B"/>
<path d="M86.0806 181.771L86.3218 183.294L86.2202 183.332C85.9917 182.825 85.7632 182.71 85.2682 182.71H82.8181C82.8054 183.32 82.7801 183.929 82.7801 184.526H84.0114C84.3796 184.526 85.027 184.475 85.3189 184.373C85.2935 184.653 85.2809 184.856 85.2809 185.084C85.2809 185.325 85.2809 185.49 85.3189 185.795C85.027 185.681 84.3796 185.643 84.0114 185.643H82.7801C82.7801 186.265 82.8054 186.899 82.8181 187.534H84.9254C85.6617 187.534 86.0044 187.394 86.6772 186.455L86.7915 186.519L86.106 188.423C86.0298 188.639 86.0044 188.651 85.814 188.651C83.072 188.651 82.6785 188.588 82.12 188.588C81.663 188.588 81.1552 188.639 80.6982 188.651C80.7617 187.928 80.8505 186.988 80.8505 185.071C80.8505 182.698 80.7743 182.317 80.6982 181.58C81.1552 181.606 81.663 181.644 82.12 181.644C82.6785 181.644 83.072 181.58 85.9156 181.58C86.0298 181.58 86.0552 181.631 86.0806 181.771Z" fill="#3D3D3B"/>
<path d="M94.8016 185.071C94.8016 182.698 94.7382 182.317 94.7128 181.593C95.1444 181.619 95.8553 181.657 96.2869 181.657C96.9216 181.657 97.0993 181.58 98.2164 181.58C100.679 181.58 102.215 182.863 102.215 185.11C102.215 187.356 100.679 188.639 98.2164 188.639C97.0739 188.639 96.8835 188.575 96.3757 188.575C95.906 188.575 95.1698 188.626 94.7128 188.639C94.7509 187.915 94.8016 186.976 94.8016 185.059V185.071ZM100.159 185.122C100.159 183.345 99.3462 182.748 98.2164 182.748C97.696 182.748 97.1882 182.774 96.655 182.812C96.655 183.434 96.655 184.018 96.655 185.084C96.655 186.074 96.655 186.772 96.6677 187.445C97.1755 187.496 97.696 187.521 98.2164 187.521C99.3462 187.521 100.159 186.899 100.159 185.135V185.122Z" fill="#3D3D3B"/>
<path d="M110.809 181.771L111.05 183.294L110.949 183.332C110.72 182.825 110.492 182.71 109.997 182.71H107.547C107.534 183.32 107.509 183.929 107.509 184.526H108.74C109.108 184.526 109.756 184.475 110.048 184.373C110.022 184.653 110.01 184.856 110.01 185.084C110.01 185.325 110.01 185.49 110.048 185.795C109.756 185.681 109.108 185.643 108.74 185.643H107.509C107.509 186.265 107.534 186.899 107.547 187.534H109.654C110.39 187.534 110.733 187.394 111.406 186.455L111.52 186.519L110.835 188.423C110.758 188.639 110.733 188.651 110.543 188.651C107.801 188.651 107.407 188.588 106.849 188.588C106.392 188.588 105.884 188.639 105.427 188.651C105.49 187.928 105.579 186.988 105.579 185.071C105.579 182.698 105.503 182.317 105.427 181.58C105.884 181.606 106.392 181.644 106.849 181.644C107.407 181.644 107.801 181.58 110.644 181.58C110.758 181.58 110.784 181.631 110.809 181.771Z" fill="#3D3D3B"/>
<path d="M121.409 185.071C121.409 186.836 122.247 187.94 123.707 187.94C125.167 187.94 125.687 187.483 126.398 186.442L126.512 186.493L126.208 188.258C126.182 188.397 126.144 188.423 125.979 188.486C125.294 188.727 124.621 188.854 123.707 188.854C121.384 188.854 119.264 187.839 119.264 185.033C119.264 182.659 120.889 181.339 123.656 181.339C124.443 181.339 125.23 181.492 125.954 181.784C126.055 181.822 126.119 181.898 126.144 182.037L126.385 184.056L126.271 184.107C125.852 183.129 125.09 182.304 123.681 182.304C122.399 182.304 121.396 183.167 121.396 185.059L121.409 185.071Z" fill="#3D3D3B"/>
<path d="M133.735 181.352C135.931 181.352 137.874 182.583 137.874 184.919C137.874 187.09 136.198 188.867 133.608 188.867C131.425 188.867 129.47 187.61 129.47 185.249C129.47 183.053 131.171 181.352 133.735 181.352ZM131.692 185.097C131.692 186.861 132.453 187.915 133.659 187.915C134.764 187.915 135.639 187.026 135.639 185.16C135.639 183.396 134.878 182.317 133.672 182.317C132.58 182.317 131.692 183.218 131.692 185.109V185.097Z" fill="#3D3D3B"/>
<path d="M145.465 182.317C146.48 184.792 146.976 186.189 148.245 188.639C147.661 188.588 147.331 188.575 146.988 188.575C146.646 188.575 146.303 188.6 145.732 188.639C145.579 188.118 145.427 187.61 145.249 187.103H142.126C141.911 187.661 141.72 188.194 141.593 188.639C141.428 188.588 141.111 188.575 140.806 188.575C140.501 188.575 140.171 188.6 140.019 188.639C140.971 187.103 142.418 184.208 143.307 182.317C143.281 182.266 143.269 182.228 143.243 182.177C143.104 181.872 142.939 181.809 142.456 181.733V181.568C142.837 181.568 143.37 181.631 143.738 181.631C144.043 181.631 144.373 181.568 144.576 181.568C145.059 181.568 145.211 181.695 145.465 182.304V182.317ZM143.777 183.37C143.434 184.119 142.99 185.059 142.596 185.985H144.856C144.538 185.148 144.17 184.284 143.777 183.37Z" fill="#3D3D3B"/>
<path d="M152.625 185.071C152.625 186.836 153.462 187.94 154.922 187.94C156.382 187.94 156.903 187.483 157.613 186.442L157.728 186.493L157.423 188.258C157.398 188.397 157.36 188.423 157.195 188.486C156.509 188.727 155.836 188.854 154.922 188.854C152.599 188.854 150.479 187.839 150.479 185.033C150.479 182.659 152.104 181.339 154.871 181.339C155.658 181.339 156.446 181.492 157.169 181.784C157.271 181.822 157.334 181.898 157.36 182.037L157.601 184.056L157.486 184.107C157.068 183.129 156.306 182.304 154.897 182.304C153.615 182.304 152.612 183.167 152.612 185.059L152.625 185.071Z" fill="#3D3D3B"/>
<path d="M167.058 188.588C166.703 188.588 166.322 188.639 165.979 188.651C166.043 188.017 166.106 187.191 166.119 185.681H163.034C163.047 187.191 163.123 188.017 163.186 188.651C162.831 188.626 162.45 188.588 162.107 188.588C161.765 188.588 161.371 188.639 161.028 188.651C161.092 187.928 161.181 186.988 161.181 185.071C161.181 182.698 161.104 182.317 161.028 181.58C161.384 181.606 161.765 181.644 162.107 181.644C162.45 181.644 162.844 181.593 163.186 181.58C163.11 182.253 163.047 182.647 163.034 184.551H166.131C166.131 182.647 166.043 182.253 165.979 181.58C166.335 181.606 166.715 181.644 167.058 181.644C167.401 181.644 167.794 181.593 168.137 181.58C168.061 182.304 167.985 182.698 167.985 185.071C167.985 186.988 168.074 187.915 168.137 188.651C167.782 188.626 167.401 188.588 167.058 188.588Z" fill="#3D3D3B"/>
<path d="M172.606 188.588C172.25 188.588 171.869 188.639 171.526 188.651C171.59 187.928 171.679 186.988 171.679 185.071C171.679 182.698 171.603 182.317 171.526 181.58C171.882 181.606 172.263 181.644 172.606 181.644C172.948 181.644 173.342 181.593 173.685 181.58C173.608 182.304 173.532 182.698 173.532 185.071C173.532 186.988 173.621 187.915 173.685 188.651C173.329 188.626 172.948 188.588 172.606 188.588Z" fill="#3D3D3B"/>
<path d="M177.201 181.403C177.683 181.809 179.346 183.193 180.946 184.195C181.657 184.652 182.05 184.919 182.393 185.122C182.393 184.589 182.431 184.221 182.431 183.738C182.431 183.256 182.406 182.621 182.317 181.568C182.482 181.619 182.723 181.631 182.951 181.631C183.18 181.631 183.408 181.606 183.586 181.568C183.447 182.812 183.396 184.195 183.396 185.592C183.396 186.684 183.434 187.788 183.51 188.854H183.421C182.964 188.486 181.441 187.242 180.184 186.417C179.283 185.858 178.699 185.478 178.242 185.186C178.229 185.516 178.204 185.897 178.204 186.29C178.204 187.001 178.242 187.788 178.343 188.626C178.153 188.575 177.937 188.562 177.709 188.562C177.48 188.562 177.264 188.588 177.074 188.626C177.175 187.89 177.214 186.557 177.214 185.211C177.214 183.713 177.163 182.164 177.074 181.327H177.201V181.377V181.403Z" fill="#3D3D3B"/>
<path d="M189.007 185.071C189.007 186.836 189.844 187.94 191.304 187.94C191.622 187.94 191.888 187.915 192.129 187.864C192.117 186.354 192.041 185.998 191.977 185.44C192.333 185.465 192.713 185.503 193.056 185.503C193.399 185.503 193.792 185.452 194.135 185.44C194.059 186.062 193.983 186.392 193.983 188.372C193.716 188.372 193.45 188.461 193.132 188.55C192.599 188.702 192.003 188.892 191.304 188.892C188.981 188.892 186.861 187.864 186.861 185.059C186.861 182.685 188.486 181.365 191.254 181.365C192.066 181.365 192.891 181.517 193.64 181.809C193.754 181.847 193.805 181.923 193.831 182.063L193.996 184.081L193.881 184.132C193.462 183.155 192.701 182.329 191.292 182.329C190.01 182.329 189.007 183.193 189.007 185.084V185.071Z" fill="#3D3D3B"/>
<path d="M203.58 188.588C203.224 188.588 202.844 188.639 202.501 188.651C202.564 187.928 202.653 186.988 202.653 185.071C202.653 182.698 202.577 182.317 202.501 181.58C202.983 181.606 203.529 181.644 204.011 181.644C204.468 181.644 205.179 181.58 205.433 181.58C208.112 181.58 208.873 182.202 208.873 183.954C208.873 185.706 208.112 186.328 205.433 186.328H204.532C204.557 187.445 204.621 188.105 204.672 188.639C204.316 188.613 203.935 188.575 203.593 188.575L203.58 188.588ZM204.557 182.71C204.532 183.205 204.519 183.891 204.519 185.224H205.433C206.652 185.224 206.817 184.665 206.817 183.967C206.817 183.269 206.652 182.71 205.433 182.71H204.57H204.557Z" fill="#3D3D3B"/>
<path d="M213.063 188.588C212.707 188.588 212.326 188.639 211.984 188.651C212.047 187.928 212.136 186.988 212.136 185.071C212.136 182.698 212.06 182.317 211.984 181.58C212.466 181.606 213.012 181.644 213.494 181.644C213.951 181.644 214.662 181.58 214.916 181.58C217.594 181.58 218.356 182.164 218.356 183.853C218.356 184.957 218.013 185.592 217.023 185.897C217.137 186.049 217.226 186.214 217.315 186.379C217.823 187.344 218.001 188.372 218.686 188.385C218.902 188.385 219.092 188.347 219.295 188.22L219.359 188.372C219.042 188.639 218.572 188.88 217.721 188.88C215.03 188.88 215.944 186.125 214.446 186.125H214.015C214.04 187.344 214.103 188.08 214.154 188.664C213.799 188.639 213.418 188.6 213.075 188.6L213.063 188.588ZM214.04 182.71C214.015 183.155 214.002 183.777 214.002 184.995H214.916C216.135 184.995 216.3 184.487 216.3 183.853C216.3 183.218 216.135 182.71 214.916 182.71H214.053H214.04Z" fill="#3D3D3B"/>
<path d="M223.193 188.588C222.837 188.588 222.456 188.639 222.114 188.651C222.177 187.928 222.266 186.988 222.266 185.071C222.266 182.698 222.19 182.317 222.114 181.58C222.469 181.606 222.85 181.644 223.193 181.644C223.535 181.644 223.929 181.593 224.272 181.58C224.195 182.304 224.119 182.698 224.119 185.071C224.119 186.988 224.208 187.915 224.272 188.651C223.916 188.626 223.535 188.588 223.193 188.588Z" fill="#3D3D3B"/>
<path d="M233.869 181.58C234.008 181.631 234.3 181.631 234.579 181.631C234.859 181.631 235.138 181.631 235.29 181.58C233.805 184.018 232.46 186.455 231.152 188.867H231.025C229.857 186.43 228.651 183.891 227.229 181.58C227.737 181.631 228.093 181.644 228.448 181.644C228.804 181.644 229.159 181.619 229.679 181.58C230.263 183.205 231.063 184.526 231.736 185.96C232.32 184.97 233.247 183.002 233.881 181.58H233.869Z" fill="#3D3D3B"/>
<path d="M243.618 181.771L243.859 183.294L243.758 183.332C243.529 182.825 243.301 182.71 242.805 182.71H240.355C240.343 183.32 240.317 183.929 240.317 184.526H241.549C241.917 184.526 242.564 184.475 242.856 184.373C242.831 184.653 242.818 184.856 242.818 185.084C242.818 185.325 242.818 185.49 242.856 185.795C242.564 185.681 241.917 185.643 241.549 185.643H240.317C240.317 186.265 240.343 186.899 240.355 187.534H242.463C243.199 187.534 243.542 187.395 244.215 186.455L244.329 186.519L243.643 188.423C243.567 188.639 243.542 188.651 243.351 188.651C240.609 188.651 240.216 188.588 239.657 188.588C239.2 188.588 238.692 188.639 238.235 188.651C238.299 187.928 238.388 186.988 238.388 185.071C238.388 182.698 238.312 182.317 238.235 181.58C238.692 181.606 239.2 181.644 239.657 181.644C240.216 181.644 240.609 181.58 243.453 181.58C243.567 181.58 243.593 181.631 243.618 181.771ZM241.079 180.882C242.133 178.445 242.323 178.229 242.437 178.102C242.577 177.937 242.767 177.848 242.945 177.848C243.148 177.848 243.351 177.963 243.491 178.178C243.605 178.356 243.669 178.597 243.669 178.813C243.669 179.092 243.58 179.359 243.415 179.562C243.301 179.702 243.123 179.918 241.206 181.06L241.092 180.882H241.079Z" fill="#3D3D3B"/>
</svg>
